# xmcd
# 
# Track frame offsets:
#     150
#     7497
#     14835
#     19762
#     27828
#     40902
#     49492
#     54118
#     57653
#     61100
#     65041
#     84829
# 
# Disc length: 1171
# 
# Revision: 2
# Processed by: cddbd v1.5.2PL0 Copyright (c) Steve Scherf et al.
# Submitted via: fre:ac v1.0.17
# 
DISCID=a404910c
DTITLE=Seizo Azuma - Suzuki Piano School  Volume 3 
DYEAR=2009
DGENRE=Classical
TTITLE0=Sonatina in C Major, Op.36, No.1, M. Clementi  Allegro
TTITLE1=Sonatina in C Major, Op.36, No.1, M. ClementiAndante
TTITLE2=Sonatina in C Major, Op.36, No.1, M. Clementi Vivace
TTITLE3=Minuet in G Major, from J.S. Bach's Notebook for Anna Magdalena Bach, C. Petzold
TTITLE4=Sonatina in C Major, Op.55, No.1, F. Kuhlau Allegro
TTITLE5=Sonatina in C Major, Op.55, No.1, F. Kuhlau Vivace
TTITLE6=Theme, from Symphony No.3 ("Eroica"), Op.55, 4th Movement, L. van Beethoven
TTITLE7=The Wild Rider, from Album for the Young, Op.68, No.8, R. Schumann
TTITLE8=Little Waltz, from Little Flowers, Op.205, No.10, C. Gurlitt
TTITLE9=Ecossaise, K. WoO 23, L. van Beethoven
TTITLE10=Sonatina in C Major, Op.36, No.3, M. Clementi Spiritoso
TTITLE11=Teasing Song, from For Children, Sz.42, B. Bartok 
EXTD=
EXTT0=
EXTT1=
EXTT2=
EXTT3=
EXTT4=
EXTT5=
EXTT6=
EXTT7=
EXTT8=
EXTT9=
EXTT10=
EXTT11=
PLAYORDER=
